*
G04 Mass Parameters ***
*
G04 Image ***
*
%INF:\ENGENHARIA\PROJETOS\ELETRONICA\DRONE\V5\CONTROLADOR-3.TOP*%
%ICAS*%
%MOIN*%
%IPPOS*%
%ASAXBY*%
G74*%FSLAN2X34Y34*%
*
G04 Aperture Definitions ***
*
%ADD10R,0.0600X0.0600*%
%ADD11C,0.0580*%
%ADD12R,0.0580X0.0580*%
%ADD13C,0.0620*%
%ADD14R,0.0620X0.0620*%
%ADD15C,0.0780*%
%ADD16R,0.0780X0.0780*%
%ADD17R,0.0640X0.0320*%
%ADD18R,0.0320X0.0640*%
%ADD19C,0.0010*%
%ADD20C,0.0197*%
%ADD21C,0.0500*%
%ADD22C,0.0118*%
%ADD23C,0.0157*%
%ADD24C,0.0130*%
%ADD25C,0.0140*%
%ADD26C,0.0140*%
*
G04 Plot Data ***
*
G54D19*
G01X0013683Y0057758D02*
X-0009545D01*
Y0038151D01*
X0013683D01*
Y0057758D01*
G54D20*
G01X0004823Y0045548D02*
X0004266Y0046105D01*
Y0047001D01*
X-0003561Y0041403D02*
X0007523D01*
X0007891Y0054304D02*
X0006540D01*
X0006478Y0054257D01*
X0006990Y0054770D01*
Y0055388D01*
X-0008245Y0056679D02*
X-0003244D01*
X-0003225Y0056661D01*
X-0001609Y0055043D01*
Y0054251D01*
X-0008245Y0056679D02*
X-0009133Y0055792D01*
Y0054003D01*
X-0008483Y0053336D01*
X-0007361D01*
X0010206Y0056681D02*
Y0055603D01*
X0004266Y0047001D02*
X0004235Y0047033D01*
Y0053471D01*
X0005015Y0054251D01*
X0005641D01*
X0012178Y0056657D02*
X0011387Y0057448D01*
X0007385D01*
X0006990Y0057053D01*
Y0056688D01*
X-0008353Y0047063D02*
Y0048203D01*
X0005641Y0053751D02*
X0005972D01*
X0006478Y0054257D01*
X0006990Y0054770D01*
Y0055388D01*
X-0004243Y0053847D02*
X-0003167D01*
X-0002065Y0052751D01*
X-0001609D01*
X0006990Y0056688D02*
X0005641Y0055339D01*
Y0054251D01*
X0006990Y0055388D02*
X0008565D01*
X-0003825Y0045457D02*
X-0002250Y0047033D01*
X-0002243D01*
X-0001609Y0047666D01*
Y0047751D01*
Y0049251D02*
X-0002373D01*
X-0003634Y0050518D01*
X-0006042D01*
X-0006435Y0050912D01*
X-0001609Y0050751D02*
X-0002247D01*
X-0002571Y0051075D01*
Y0051566D01*
X-0002572D01*
X0000142Y0045627D02*
X0000160Y0045609D01*
Y0045632D01*
X-0000667Y0047447D02*
X0000357Y0048471D01*
Y0052566D01*
X-0000329Y0053251D01*
X-0001609D01*
X-0005097Y0051384D02*
X-0005104D01*
X-0005227Y0051502D01*
X-0007435D01*
X-0009133Y0049809D01*
Y0045025D01*
X-0008621Y0044513D01*
X-0003561D01*
X-0002439Y0045636D01*
X-0001258D01*
X0005416Y0042899D02*
X-0004979D01*
X-0005392Y0042486D01*
X-0006381D01*
X-0006387Y0042480D01*
X-0004312Y0042244D02*
X0005357D01*
X-0001609Y0048251D02*
X-0002028D01*
X-0003502Y0046777D01*
X-0005628D01*
X-0005904Y0047063D01*
X-0007172D01*
X-0008353Y0045763D02*
X-0007172D01*
X-0001609Y0052251D02*
X-0002105D01*
X-0003049Y0053196D01*
X-0004687D01*
X-0005246Y0053755D01*
X-0006348Y0053343D02*
Y0053658D01*
X-0005589Y0054416D01*
X-0003167D01*
X-0002002Y0053251D01*
X-0001609D01*
X-0001258Y0045636D02*
Y0045655D01*
X-0001002Y0045911D01*
Y0047762D02*
X-0000155Y0048608D01*
Y0051384D01*
X-0000522Y0051751D01*
X-0001609D01*
X-0003640Y0051384D02*
X-0002507Y0050251D01*
X-0001609D01*
X-0008756Y0042505D02*
X-0007380Y0043864D01*
X-0003482D01*
X-0002380Y0044966D01*
X0002266D01*
X0003766Y0046466D01*
Y0047001D01*
X0008565Y0056688D02*
X0010199D01*
X0010206Y0056681D01*
X-0006575Y0048751D02*
X-0001609D01*
X-0007577Y0042466D02*
X-0006674Y0043372D01*
X0005357D01*
X0006990Y0055388D02*
Y0054770D01*
X0006478Y0054257D01*
X0005973Y0053751D01*
X0005641D01*
G54D22*
G01X0010206Y0055603D02*
X0008389Y0053786D01*
X0006598D01*
X0006063Y0053251D01*
X0005641D01*
Y0049751D02*
X0006026D01*
X0006775Y0050500D01*
Y0052644D01*
X0007149Y0053018D01*
X0008133D01*
X0011835Y0049317D01*
X0013095D01*
X0005641Y0048251D02*
X0005893D01*
X0006224Y0047912D01*
Y0043709D01*
X0005416Y0042899D01*
X0005357Y0042244D02*
X0006480Y0043382D01*
Y0048314D01*
X0006041Y0048751D01*
X0005641D01*
X0013095Y0048313D02*
X0010634D01*
X0009630Y0047309D01*
Y0044179D01*
X0008074Y0042623D01*
X0006991D01*
X0006755Y0042860D01*
Y0048569D01*
X0006073Y0049251D01*
X0005641D01*
X0006795Y0053530D02*
X0006283Y0053018D01*
Y0050971D01*
X0006063Y0050751D01*
X0005641D01*
X0013114Y0050321D02*
X0011480D01*
X0008527Y0053274D01*
X0006952D01*
X0006539Y0052861D01*
Y0050754D01*
X0006036Y0050251D01*
X0005641D01*
X0005357Y0043372D02*
X0005909Y0043923D01*
Y0045458D01*
X0005641Y0045726D01*
Y0047751D01*
G54D23*
G01X0000160Y0045632D02*
X-0000667Y0046467D01*
Y0047447D01*
X-0001002Y0045911D02*
Y0047762D01*
G54D24*
G01X0013075Y0051325D02*
X0011165D01*
X0008960Y0053530D01*
X0006795D01*
G54D10*
X0008565Y0056688D03*
Y0055388D03*
X-0007172Y0047063D03*
Y0045763D03*
X-0008353Y0047063D03*
Y0045763D03*
X0006990Y0056688D03*
Y0055388D03*
G54D11*
X0012372Y0051319D03*
Y0050319D03*
Y0049319D03*
Y0048319D03*
Y0047319D03*
Y0046319D03*
Y0045319D03*
Y0044319D03*
Y0043319D03*
X0007372D03*
Y0044319D03*
Y0045319D03*
Y0046319D03*
Y0047319D03*
Y0048319D03*
Y0049319D03*
Y0050319D03*
Y0051319D03*
Y0052319D03*
X-0001851Y0044091D03*
X-0000851D03*
X0000149D03*
X0001149D03*
X0002149D03*
X0003149D03*
X0004149D03*
X0005149D03*
X-0006566Y0049818D03*
X-0005566D03*
X-0004566D03*
G54D12*
X0012372Y0052319D03*
X-0007566Y0049818D03*
G54D13*
X-0004245Y0055113D03*
X-0005245D03*
X-0006245D03*
X-0007245D03*
X-0008245D03*
X0010140Y0040335D03*
Y0039335D03*
X0012502Y0040335D03*
Y0039335D03*
X0011321Y0040335D03*
Y0039335D03*
X0008959Y0040335D03*
Y0039335D03*
X-0005213Y0040335D03*
Y0039335D03*
X-0006394Y0040335D03*
Y0039335D03*
X-0007575Y0040335D03*
Y0039335D03*
X-0008756Y0040335D03*
Y0039335D03*
X-0007363Y0052358D03*
X-0006363D03*
X-0005363D03*
X-0004363D03*
X-0003363D03*
G54D14*
X-0003245Y0055113D03*
X0010140Y0041335D03*
X0012502D03*
X0011321D03*
X0008959D03*
X-0005213D03*
X-0006394D03*
X-0007575D03*
X-0008756D03*
X-0008363Y0052358D03*
G54D15*
X-0003825Y0045457D03*
X-0003816Y0047897D03*
X-0005788Y0047904D03*
X0010206Y0056681D03*
X0010197Y0054240D03*
X0012169Y0054233D03*
G54D16*
X-0005798Y0045480D03*
X0012178Y0056657D03*
G54D17*
X0005641Y0054251D03*
Y0053751D03*
Y0053251D03*
Y0052751D03*
Y0052251D03*
Y0051751D03*
Y0051251D03*
Y0050751D03*
Y0050251D03*
Y0049751D03*
Y0049251D03*
Y0048751D03*
Y0048251D03*
Y0047751D03*
X-0001609D03*
Y0048251D03*
Y0048751D03*
Y0049251D03*
Y0049751D03*
Y0050251D03*
Y0050751D03*
Y0051251D03*
Y0051751D03*
Y0052251D03*
Y0052751D03*
Y0053251D03*
Y0053751D03*
Y0054251D03*
G54D18*
X0004266Y0047001D03*
X0003766D03*
X0003266D03*
X0002766D03*
X0002266D03*
X0001766D03*
X0001266D03*
X0000766D03*
X0000266D03*
X-0000234D03*
G54D21*
X0004823Y0045548D03*
X-0003561Y0041403D03*
X0007523D03*
X0007891Y0054304D03*
X-0008245Y0056679D03*
X-0007361Y0053336D03*
X-0008353Y0048203D03*
X-0004243Y0053847D03*
X-0006435Y0050912D03*
X-0002572Y0051566D03*
X0013095Y0049317D03*
X0000142Y0045627D03*
X-0005097Y0051384D03*
X-0006387Y0042480D03*
X-0004312Y0042244D03*
X0013095Y0048313D03*
X0013075Y0051325D03*
X-0005246Y0053755D03*
X-0006348Y0053343D03*
X0013114Y0050321D03*
X-0001258Y0045636D03*
X-0003640Y0051384D03*
X-0008756Y0042505D03*
X-0006575Y0048751D03*
X-0007577Y0042466D03*
G54D25*
%LPC*%
X0004823Y0045548D03*
X-0003561Y0041403D03*
X0007523D03*
X0007891Y0054304D03*
X-0008245Y0056679D03*
D03*
X-0007361Y0053336D03*
X-0008353Y0048203D03*
X-0004243Y0053847D03*
X-0006435Y0050912D03*
X-0002572Y0051566D03*
X0013095Y0049317D03*
X0000142Y0045627D03*
X-0005097Y0051384D03*
X-0001258Y0045636D03*
X-0006387Y0042480D03*
X-0004312Y0042244D03*
X0013095Y0048313D03*
X0013075Y0051325D03*
X-0005246Y0053755D03*
X-0006348Y0053343D03*
X0013114Y0050321D03*
X-0001258Y0045636D03*
X-0003640Y0051384D03*
X-0008756Y0042505D03*
X-0006575Y0048751D03*
X-0007577Y0042466D03*
%LPD*%
G54D26*
%LPC*%
X0012372Y0052319D03*
Y0051319D03*
Y0050319D03*
Y0049319D03*
Y0048319D03*
Y0047319D03*
Y0046319D03*
Y0045319D03*
Y0044319D03*
Y0043319D03*
X0007372D03*
Y0044319D03*
Y0045319D03*
Y0046319D03*
Y0047319D03*
Y0048319D03*
Y0049319D03*
Y0050319D03*
Y0051319D03*
Y0052319D03*
X-0001851Y0044091D03*
X-0000851D03*
X0000149D03*
X0001149D03*
X0002149D03*
X0003149D03*
X0004149D03*
X0005149D03*
X-0005798Y0045480D03*
X-0003825Y0045457D03*
X-0003816Y0047897D03*
X-0005788Y0047904D03*
X0012178Y0056657D03*
X0010206Y0056681D03*
X0010197Y0054240D03*
X0012169Y0054233D03*
X-0003245Y0055113D03*
X-0004245D03*
X-0005245D03*
X-0006245D03*
X-0007245D03*
X-0008245D03*
X0010140Y0041335D03*
Y0040335D03*
Y0039335D03*
X0012502Y0041335D03*
Y0040335D03*
Y0039335D03*
X0011321Y0041335D03*
Y0040335D03*
Y0039335D03*
X0008959Y0041335D03*
Y0040335D03*
Y0039335D03*
X-0005213Y0041335D03*
Y0040335D03*
Y0039335D03*
X-0006394Y0041335D03*
Y0040335D03*
Y0039335D03*
X-0007575Y0041335D03*
Y0040335D03*
Y0039335D03*
X-0008756Y0041335D03*
Y0040335D03*
Y0039335D03*
X-0008363Y0052358D03*
X-0007363D03*
X-0006363D03*
X-0005363D03*
X-0004363D03*
X-0003363D03*
X-0007566Y0049818D03*
X-0006566D03*
X-0005566D03*
X-0004566D03*
%LPD*%
M02*
