*
G04 Mass Parameters ***
*
G04 Image ***
*
%INF:\ENGENHARIA\PROJETOS\ELETRONICA\DRONE\V5\CONTROLADOR-3.GND*%
%ICAS*%
%MOIN*%
%IPPOS*%
%ASAXBY*%
G74*%FSLAN2X34Y34*%
*
G04 Aperture Definitions ***
*
%ADD10R,0.0600X0.0600*%
%ADD11C,0.0580*%
%ADD12R,0.0580X0.0580*%
%ADD13C,0.0620*%
%ADD14R,0.0620X0.0620*%
%ADD15C,0.0780*%
%ADD16R,0.0780X0.0780*%
%ADD17R,0.0640X0.0320*%
%ADD18R,0.0320X0.0640*%
%ADD19C,0.0010*%
%ADD20C,0.0197*%
%ADD21C,0.0500*%
%ADD22C,0.0118*%
%ADD23C,0.0157*%
%ADD24C,0.0130*%
%ADD25C,0.0140*%
%ADD26C,0.0140*%
%ADD27R,0.0600X0.0600*%
%ADD28C,0.0580*%
%ADD29R,0.0580X0.0580*%
%ADD30C,0.0620*%
%ADD31R,0.0620X0.0620*%
%ADD32C,0.0780*%
%ADD33R,0.1420X0.0880*%
%ADD34R,0.0480X0.0880*%
%ADD35C,0.0138*%
%ADD36R,0.0780X0.0780*%
%ADD37C,0.0820*%
%ADD38R,0.0820X0.0820*%
%ADD39C,0.0840*%
%ADD40C,0.0750*%
*
G04 Plot Data ***
*
G54D32*
X0012372Y0051319D03*
Y0050319D03*
Y0049319D03*
Y0048319D03*
Y0047319D03*
Y0046319D03*
Y0045319D03*
Y0044319D03*
Y0043319D03*
X0007372D03*
Y0044319D03*
Y0045319D03*
Y0046319D03*
Y0047319D03*
Y0048319D03*
Y0049319D03*
Y0050319D03*
Y0051319D03*
Y0052319D03*
X-0001851Y0044091D03*
X-0000851D03*
X0000149D03*
X0001149D03*
X0002149D03*
X0003149D03*
X0004149D03*
X0005149D03*
X-0006566Y0049818D03*
X-0005566D03*
X-0004566D03*
G54D36*
X0012372Y0052319D03*
X-0007566Y0049818D03*
G54D37*
X-0004245Y0055113D03*
X-0005245D03*
X-0006245D03*
X-0007245D03*
X-0008245D03*
X0010140Y0040335D03*
Y0039335D03*
X0012502Y0040335D03*
Y0039335D03*
X0011321Y0040335D03*
Y0039335D03*
X0008959Y0040335D03*
Y0039335D03*
X-0005213Y0040335D03*
Y0039335D03*
X-0006394Y0040335D03*
Y0039335D03*
X-0007575Y0040335D03*
Y0039335D03*
X-0008756Y0040335D03*
Y0039335D03*
X-0007363Y0052358D03*
X-0006363D03*
X-0005363D03*
X-0004363D03*
X-0003363D03*
G54D38*
X-0003245Y0055113D03*
X0010140Y0041335D03*
X0012502D03*
X0011321D03*
X0008959D03*
X-0005213D03*
X-0006394D03*
X-0007575D03*
X-0008756D03*
X-0008363Y0052358D03*
G54D39*
X-0005798Y0045480D03*
X-0003825Y0045457D03*
X-0003816Y0047897D03*
X-0005788Y0047904D03*
X0012178Y0056657D03*
X0010206Y0056681D03*
X0010197Y0054240D03*
X0012169Y0054233D03*
G54D40*
X0004823Y0045548D03*
X-0003561Y0041403D03*
X0007523D03*
X0007891Y0054304D03*
X-0008245Y0056679D03*
X-0007361Y0053336D03*
X-0008353Y0048203D03*
X-0004243Y0053847D03*
X-0006435Y0050912D03*
X-0002572Y0051566D03*
X0013095Y0049317D03*
X0000142Y0045627D03*
X-0005097Y0051384D03*
X-0006387Y0042480D03*
X-0004312Y0042244D03*
X0013095Y0048313D03*
X0013075Y0051325D03*
X-0005246Y0053755D03*
X-0006348Y0053343D03*
X0013114Y0050321D03*
X-0001258Y0045636D03*
X-0003640Y0051384D03*
X-0008756Y0042505D03*
X-0006575Y0048751D03*
X-0007577Y0042466D03*
G54D25*
%LPC*%
X0004823Y0045548D03*
X-0003561Y0041403D03*
X0007523D03*
X0007891Y0054304D03*
X-0008245Y0056679D03*
D03*
X-0007361Y0053336D03*
X-0008353Y0048203D03*
X-0004243Y0053847D03*
X-0006435Y0050912D03*
X-0002572Y0051566D03*
X0013095Y0049317D03*
X0000142Y0045627D03*
X-0005097Y0051384D03*
X-0001258Y0045636D03*
X-0006387Y0042480D03*
X-0004312Y0042244D03*
X0013095Y0048313D03*
X0013075Y0051325D03*
X-0005246Y0053755D03*
X-0006348Y0053343D03*
X0013114Y0050321D03*
X-0001258Y0045636D03*
X-0003640Y0051384D03*
X-0008756Y0042505D03*
X-0006575Y0048751D03*
X-0007577Y0042466D03*
%LPD*%
G54D26*
%LPC*%
X0012372Y0052319D03*
Y0051319D03*
Y0050319D03*
Y0049319D03*
Y0048319D03*
Y0047319D03*
Y0046319D03*
Y0045319D03*
Y0044319D03*
Y0043319D03*
X0007372D03*
Y0044319D03*
Y0045319D03*
Y0046319D03*
Y0047319D03*
Y0048319D03*
Y0049319D03*
Y0050319D03*
Y0051319D03*
Y0052319D03*
X-0001851Y0044091D03*
X-0000851D03*
X0000149D03*
X0001149D03*
X0002149D03*
X0003149D03*
X0004149D03*
X0005149D03*
X-0005798Y0045480D03*
X-0003825Y0045457D03*
X-0003816Y0047897D03*
X-0005788Y0047904D03*
X0012178Y0056657D03*
X0010206Y0056681D03*
X0010197Y0054240D03*
X0012169Y0054233D03*
X-0003245Y0055113D03*
X-0004245D03*
X-0005245D03*
X-0006245D03*
X-0007245D03*
X-0008245D03*
X0010140Y0041335D03*
Y0040335D03*
Y0039335D03*
X0012502Y0041335D03*
Y0040335D03*
Y0039335D03*
X0011321Y0041335D03*
Y0040335D03*
Y0039335D03*
X0008959Y0041335D03*
Y0040335D03*
Y0039335D03*
X-0005213Y0041335D03*
Y0040335D03*
Y0039335D03*
X-0006394Y0041335D03*
Y0040335D03*
Y0039335D03*
X-0007575Y0041335D03*
Y0040335D03*
Y0039335D03*
X-0008756Y0041335D03*
Y0040335D03*
Y0039335D03*
X-0008363Y0052358D03*
X-0007363D03*
X-0006363D03*
X-0005363D03*
X-0004363D03*
X-0003363D03*
X-0007566Y0049818D03*
X-0006566D03*
X-0005566D03*
X-0004566D03*
%LPD*%
M02*
