*
G04 Mass Parameters ***
*
G04 Image ***
*
%INF:\ENGENHARIA\PROJETOS\ELETRONICA\DRONE\V5\CONTROLADOR-1.TOP*%
%ICAS*%
%MOIN*%
%IPPOS*%
%ASAXBY*%
G74*%FSLAN2X34Y34*%
*
G04 Aperture Definitions ***
*
%ADD10R,0.0600X0.0600*%
%ADD11C,0.0580*%
%ADD12R,0.0580X0.0580*%
%ADD13C,0.0620*%
%ADD14R,0.0620X0.0620*%
%ADD15C,0.0450*%
%ADD16C,0.0780*%
%ADD17R,0.0780X0.0780*%
%ADD18R,0.0640X0.0320*%
%ADD19R,0.0320X0.0640*%
%ADD20C,0.0500*%
%ADD21C,0.0197*%
%ADD22C,0.0500*%
%ADD23C,0.0118*%
%ADD24C,0.0140*%
%ADD25C,0.0140*%
*
G04 Plot Data ***
*
G54D21*
G01X0007663Y0054326D02*
X0007073D01*
X0006876Y0054129D01*
Y0055388D01*
X0005527Y0054251D02*
Y0055312D01*
X0007696Y0057482D01*
X0009400D01*
X0010396Y0056487D01*
X0004152Y0047001D02*
X0004474D01*
X0005259Y0046217D01*
X-0001723Y0054251D02*
X-0002207D01*
X-0002979Y0055023D01*
Y0055401D01*
X0004152Y0047001D02*
X0004474D01*
X0005259Y0046217D01*
X0005527Y0054251D02*
Y0055312D01*
Y0055339D01*
X0006876Y0056688D01*
X-0000741Y0038048D02*
X-0001939D01*
X0005527Y0053751D02*
X0006498D01*
X0006876Y0054129D01*
Y0055388D01*
X0008450D01*
X0010372Y0054514D02*
X0009435Y0055452D01*
Y0056097D01*
X0008844Y0056688D01*
X0008450D01*
X-0007700Y0046999D02*
X-0007721D01*
X-0008796Y0048074D01*
Y0054655D01*
X-0007323Y0056129D01*
X-0001821D01*
X-0000326Y0054634D01*
Y0052549D01*
X-0001124Y0051751D01*
X-0001723D01*
X0003711Y0038954D02*
Y0040341D01*
X0006264Y0042895D01*
Y0046982D01*
X0005527Y0047719D01*
Y0047751D01*
X0006832Y0049442D02*
X0006756D01*
X0006447Y0049751D01*
X0005527D01*
X-0004794Y0045981D02*
Y0048324D01*
X-0002929Y0050189D01*
X-0001785D01*
X-0001723Y0050251D01*
X0006876Y0056688D02*
X0005527Y0055339D01*
Y0055351D01*
X0007658Y0057482D01*
X0007696D01*
X0009400D01*
X0010396Y0056487D01*
X0010368D01*
X0009380Y0057475D01*
X0007690D01*
X0007663D01*
X0006876Y0056688D01*
X-0002883Y0044093D02*
X-0003237Y0044447D01*
Y0047748D01*
X-0003483Y0047994D01*
X-0003977D01*
X-0003984Y0047987D01*
X-0002883Y0048891D02*
Y0048380D01*
X-0002254Y0047751D01*
X-0001723D01*
Y0052251D02*
X-0002213D01*
X-0003459Y0051015D01*
X-0004496D01*
X-0004732Y0051251D01*
Y0051723D01*
X-0000741Y0038048D02*
X-0001939D01*
X-0005529Y0044996D02*
Y0048316D01*
X-0003100Y0050745D01*
X-0002720D01*
X-0002714Y0050751D01*
X-0001723D01*
X-0002907Y0043098D02*
X-0003541D01*
X-0004024Y0043581D01*
Y0047003D01*
X0005527Y0054251D02*
X0005498Y0054280D01*
Y0055310D01*
X0005527Y0055339D01*
X0006876Y0056688D01*
X0005527Y0050251D02*
X0005578Y0050303D01*
X0006754D01*
X-0000348Y0047001D02*
X-0001231D01*
X-0002458Y0045774D01*
Y0044878D01*
X0000833Y0041587D01*
Y0038048D01*
X0005527Y0049251D02*
X0006197D01*
X0006832Y0048616D01*
X0005527Y0048251D02*
X0005820D01*
X0006642Y0047430D01*
Y0040637D01*
X0004892Y0038887D01*
X0005527Y0050751D02*
X0006214D01*
X0006766Y0051303D01*
X-0007721Y0047987D02*
X-0007760D01*
X-0008417Y0048643D01*
Y0054410D01*
X-0007839Y0054988D01*
X-0004181D01*
X-0002444Y0053251D01*
X-0001723D01*
X0002530Y0038877D02*
Y0043212D01*
X0004000Y0044683D01*
Y0046177D02*
X0003652Y0046526D01*
Y0047001D01*
X-0007878Y0041772D02*
X-0007964D01*
X-0009175Y0042982D01*
Y0054872D01*
X-0007415Y0056632D01*
X-0001302D01*
X0000303Y0055027D01*
Y0050504D01*
X-0000950Y0049251D01*
X-0001723D01*
X-0000741Y0036748D02*
X0000833D01*
X-0001723Y0052751D02*
X-0001729Y0052746D01*
X-0002765D01*
X-0003722Y0051789D01*
X0000152Y0047001D02*
Y0046262D01*
X0000146Y0046256D01*
X0005527Y0053251D02*
X0007966D01*
X0009229Y0054514D01*
X0010372D01*
X0005527Y0048751D02*
X0005910D01*
X0006994Y0047668D01*
Y0039888D01*
X0006073Y0038967D01*
X-0007878Y0040760D02*
X-0007901D01*
X-0009554Y0042414D01*
Y0055035D01*
X-0007469Y0057120D01*
X-0000688D01*
X0001090Y0055342D01*
Y0050032D01*
X-0000191Y0048751D01*
X-0001723D01*
G54D23*
G01X0004000Y0044683D02*
Y0046177D01*
G54D10*
X0008450Y0056688D03*
Y0055388D03*
X0000833Y0038048D03*
Y0036748D03*
X-0000741Y0038048D03*
Y0036748D03*
X0006876Y0056688D03*
Y0055388D03*
G54D11*
X0012781Y0051358D03*
Y0050358D03*
Y0049358D03*
Y0048358D03*
Y0047358D03*
Y0046358D03*
Y0045358D03*
Y0044358D03*
Y0043358D03*
X0007663Y0043303D03*
Y0044303D03*
Y0045303D03*
Y0046303D03*
Y0047303D03*
Y0048303D03*
Y0049303D03*
Y0050303D03*
Y0051303D03*
Y0052358D03*
X-0001518Y0045272D03*
X-0000518D03*
X0000482D03*
X0001482D03*
X0002482D03*
X0003482D03*
X0004482D03*
X0005482D03*
X-0004722Y0052720D03*
X-0005722D03*
X-0006722D03*
X-0007722D03*
X-0006509Y0040760D03*
Y0041760D03*
Y0042760D03*
G54D12*
X0012781Y0052358D03*
X-0003722Y0052720D03*
X-0006509Y0039760D03*
G54D13*
X-0003966Y0037398D03*
Y0038398D03*
X0011206Y0039548D03*
Y0038548D03*
X0008844Y0039548D03*
Y0038548D03*
X0010025Y0039548D03*
Y0038548D03*
X0012387Y0039548D03*
Y0038548D03*
X0006073Y0036808D03*
Y0035808D03*
X0004892Y0036808D03*
Y0035808D03*
X0003711Y0036808D03*
Y0035808D03*
X0002530Y0036808D03*
Y0035808D03*
X-0006509Y0048996D03*
Y0047996D03*
Y0046996D03*
Y0045996D03*
Y0044996D03*
G54D14*
X-0003966Y0036398D03*
X0011206Y0040548D03*
X0008844D03*
X0010025D03*
X0012387D03*
X0006073Y0037808D03*
X0004892D03*
X0003711D03*
X0002530D03*
X-0006509Y0049996D03*
G54D15*
X0009238Y0036611D03*
X0012238D03*
G54D16*
X0010372Y0054514D03*
X0012812Y0054505D03*
X0012819Y0056477D03*
G54D17*
X0010396Y0056487D03*
G54D18*
X0005527Y0054251D03*
Y0053751D03*
Y0053251D03*
Y0052751D03*
Y0052251D03*
Y0051751D03*
Y0051251D03*
Y0050751D03*
Y0050251D03*
Y0049751D03*
Y0049251D03*
Y0048751D03*
Y0048251D03*
Y0047751D03*
X-0001723D03*
Y0048251D03*
Y0048751D03*
Y0049251D03*
Y0049751D03*
Y0050251D03*
Y0050751D03*
Y0051251D03*
Y0051751D03*
Y0052251D03*
Y0052751D03*
Y0053251D03*
Y0053751D03*
Y0054251D03*
G54D19*
X0004152Y0047001D03*
X0003652D03*
X0003152D03*
X0002652D03*
X0002152D03*
X0001652D03*
X0001152D03*
X0000652D03*
X0000152D03*
X-0000348D03*
G54D20*
X-0007878Y0040760D03*
G54D22*
X0007663Y0054326D03*
X-0002979Y0055401D03*
X0005259Y0046217D03*
X-0007700Y0046999D03*
X0003711Y0038954D03*
X0006832Y0049442D03*
X-0004794Y0045981D03*
X-0002883Y0044093D03*
X-0003984Y0047987D03*
X-0002883Y0048891D03*
X-0004732Y0051723D03*
X-0001939Y0038048D03*
X-0005529Y0044996D03*
X-0002907Y0043098D03*
X-0004024Y0047003D03*
X0006754Y0050303D03*
X0006832Y0048616D03*
X0004892Y0038887D03*
X0006766Y0051303D03*
X-0007721Y0047987D03*
X0002530Y0038877D03*
X-0007878Y0041772D03*
X-0003722Y0051789D03*
X0000146Y0046256D03*
X0006073Y0038967D03*
G54D24*
%LPC*%
X0007663Y0054326D03*
X0005259Y0046217D03*
X-0002979Y0055401D03*
X0005259Y0046217D03*
X-0001939Y0038048D03*
X-0007700Y0046999D03*
X0003711Y0038954D03*
X0006832Y0049442D03*
X-0004794Y0045981D03*
X-0002883Y0044093D03*
X-0003984Y0047987D03*
X-0002883Y0048891D03*
X-0004732Y0051723D03*
X-0001939Y0038048D03*
X-0005529Y0044996D03*
X-0002907Y0043098D03*
X-0004024Y0047003D03*
X0006754Y0050303D03*
X0006832Y0048616D03*
X0004892Y0038887D03*
X0006766Y0051303D03*
X-0007721Y0047987D03*
X0002530Y0038877D03*
X-0007878Y0041772D03*
X-0003722Y0051789D03*
X0000146Y0046256D03*
X0006073Y0038967D03*
X-0007878Y0040760D03*
%LPD*%
G54D25*
%LPC*%
X0012781Y0052358D03*
Y0051358D03*
Y0050358D03*
Y0049358D03*
Y0048358D03*
Y0047358D03*
Y0046358D03*
Y0045358D03*
Y0044358D03*
Y0043358D03*
X0007663Y0043303D03*
Y0044303D03*
Y0045303D03*
Y0046303D03*
Y0047303D03*
Y0048303D03*
Y0049303D03*
Y0050303D03*
Y0051303D03*
Y0052358D03*
X-0001518Y0045272D03*
X-0000518D03*
X0000482D03*
X0001482D03*
X0002482D03*
X0003482D03*
X0004482D03*
X0005482D03*
X0010396Y0056487D03*
X0010372Y0054514D03*
X0012812Y0054505D03*
X0012819Y0056477D03*
X0009238Y0036611D03*
X0012238D03*
X-0003966Y0036398D03*
Y0037398D03*
Y0038398D03*
X-0003722Y0052720D03*
X-0004722D03*
X-0005722D03*
X-0006722D03*
X-0007722D03*
X0011206Y0040548D03*
Y0039548D03*
Y0038548D03*
X0008844Y0040548D03*
Y0039548D03*
Y0038548D03*
X0010025Y0040548D03*
Y0039548D03*
Y0038548D03*
X0012387Y0040548D03*
Y0039548D03*
Y0038548D03*
X0006073Y0037808D03*
Y0036808D03*
Y0035808D03*
X0004892Y0037808D03*
Y0036808D03*
Y0035808D03*
X0003711Y0037808D03*
Y0036808D03*
Y0035808D03*
X0002530Y0037808D03*
Y0036808D03*
Y0035808D03*
X-0006509Y0049996D03*
Y0048996D03*
Y0047996D03*
Y0046996D03*
Y0045996D03*
Y0044996D03*
Y0039760D03*
Y0040760D03*
Y0041760D03*
Y0042760D03*
%LPD*%
M02*
