*
G04 Mass Parameters ***
*
G04 Image ***
*
%INF:\ENGENHARIA\PROJETOS\ELETRONICA\DRONE\V5\CONTROLADOR-4.PWR*%
%ICAS*%
%MOIN*%
%IPPOS*%
%ASAXBY*%
G74*%FSLAN2X34Y34*%
*
G04 Aperture Definitions ***
*
%ADD10R,0.0600X0.0600*%
%ADD11C,0.0580*%
%ADD12R,0.0580X0.0580*%
%ADD13C,0.0620*%
%ADD14R,0.0620X0.0620*%
%ADD15C,0.0780*%
%ADD16R,0.0780X0.0780*%
%ADD17R,0.0640X0.0320*%
%ADD18R,0.0320X0.0640*%
%ADD19C,0.0010*%
%ADD20C,0.0500*%
%ADD21C,0.0197*%
%ADD22C,0.0118*%
%ADD23C,0.0500*%
%ADD24C,0.0157*%
%ADD25C,0.0130*%
%ADD26C,0.0140*%
%ADD27C,0.0140*%
%ADD28R,0.0600X0.0600*%
%ADD29C,0.0580*%
%ADD30R,0.0580X0.0580*%
%ADD31C,0.0620*%
%ADD32R,0.0620X0.0620*%
%ADD33C,0.0780*%
%ADD34R,0.1420X0.0880*%
%ADD35R,0.0480X0.0880*%
%ADD36C,0.0080*%
%ADD37C,0.0138*%
%ADD38R,0.0780X0.0780*%
%ADD39C,0.0820*%
%ADD40R,0.0820X0.0820*%
%ADD41C,0.0840*%
%ADD42C,0.0750*%
*
G04 Plot Data ***
*
G54D33*
X-0010106Y0051319D03*
Y0050319D03*
Y0049319D03*
Y0048319D03*
Y0047319D03*
Y0046319D03*
Y0045319D03*
Y0044319D03*
Y0043319D03*
X-0005106D03*
Y0044319D03*
Y0045319D03*
Y0046319D03*
Y0047319D03*
Y0048319D03*
Y0049319D03*
Y0050319D03*
Y0051319D03*
Y0052319D03*
X0004118Y0044090D03*
X0003118D03*
X0002118D03*
X0001118D03*
X0000118D03*
X-0000882D03*
X-0001882D03*
X-0002882D03*
X0007925Y0056863D03*
X0008832Y0049818D03*
X0007832D03*
X0006832D03*
G54D38*
X-0010106Y0052319D03*
X0006925Y0056863D03*
X0009832Y0049818D03*
G54D39*
X0006511Y0055113D03*
X0007511D03*
X0008511D03*
X0009511D03*
X0010511D03*
X-0007873Y0040335D03*
Y0039335D03*
X-0010235Y0040335D03*
Y0039335D03*
X-0009054Y0040335D03*
Y0039335D03*
X-0006692Y0040335D03*
Y0039335D03*
X0007480Y0040335D03*
Y0039335D03*
X0008661Y0040335D03*
Y0039335D03*
X0009842Y0040335D03*
Y0039335D03*
X0011023Y0040335D03*
Y0039335D03*
X0009629Y0052357D03*
X0008629D03*
X0007629D03*
X0006629D03*
X0005629D03*
G54D40*
X0005511Y0055113D03*
X-0007873Y0041335D03*
X-0010235D03*
X-0009054D03*
X-0006692D03*
X0007480D03*
X0008661D03*
X0009842D03*
X0011023D03*
X0010629Y0052357D03*
G54D41*
X0008064Y0045480D03*
X0006091Y0045456D03*
X0006082Y0047897D03*
X0008054Y0047904D03*
X-0009912Y0056657D03*
X-0007940Y0056680D03*
X-0007930Y0054240D03*
X-0009903Y0054233D03*
G54D42*
X-0005591Y0054436D03*
X0010620Y0048203D03*
X0010513Y0056464D03*
X0009627Y0053336D03*
X-0002557Y0045548D03*
X0005138Y0056720D03*
X0005827Y0041403D03*
X-0005256D03*
X-0010808Y0051325D03*
X0002106Y0045631D03*
X0007363Y0051384D03*
X-0010848Y0050321D03*
X0007513Y0053755D03*
X0008702Y0050912D03*
X0008842Y0048751D03*
X0006578Y0042244D03*
X0004838Y0051566D03*
X-0010828Y0048313D03*
X0008653Y0042480D03*
X0005906Y0051384D03*
X-0010828Y0049317D03*
X0008614Y0053342D03*
X0003524Y0045635D03*
X0006509Y0053847D03*
X0011023Y0042505D03*
X0009844Y0042466D03*
G54D26*
%LPC*%
X-0005591Y0054436D03*
X0010620Y0048203D03*
X0010513Y0056464D03*
D03*
X0009627Y0053336D03*
X-0002557Y0045548D03*
X0005138Y0056720D03*
X0005827Y0041403D03*
X-0005256D03*
X-0010808Y0051325D03*
X0002106Y0045631D03*
X0007363Y0051384D03*
X0003524Y0045635D03*
X-0010848Y0050321D03*
X0007513Y0053755D03*
X0008702Y0050912D03*
X0008842Y0048751D03*
X0006578Y0042244D03*
X0004838Y0051566D03*
X-0010828Y0048313D03*
X0008653Y0042480D03*
X0005906Y0051384D03*
X-0010828Y0049317D03*
X0008614Y0053342D03*
X0003524Y0045635D03*
X0006509Y0053847D03*
X0011023Y0042505D03*
X0009844Y0042466D03*
%LPD*%
G54D27*
%LPC*%
X-0010106Y0052319D03*
Y0051319D03*
Y0050319D03*
Y0049319D03*
Y0048319D03*
Y0047319D03*
Y0046319D03*
Y0045319D03*
Y0044319D03*
Y0043319D03*
X-0005106D03*
Y0044319D03*
Y0045319D03*
Y0046319D03*
Y0047319D03*
Y0048319D03*
Y0049319D03*
Y0050319D03*
Y0051319D03*
Y0052319D03*
X0004118Y0044090D03*
X0003118D03*
X0002118D03*
X0001118D03*
X0000118D03*
X-0000882D03*
X-0001882D03*
X-0002882D03*
X0008064Y0045480D03*
X0006091Y0045456D03*
X0006082Y0047897D03*
X0008054Y0047904D03*
X-0009912Y0056657D03*
X-0007940Y0056680D03*
X-0007930Y0054240D03*
X-0009903Y0054233D03*
X0006925Y0056863D03*
X0007925D03*
X0005511Y0055113D03*
X0006511D03*
X0007511D03*
X0008511D03*
X0009511D03*
X0010511D03*
X-0007873Y0041335D03*
Y0040335D03*
Y0039335D03*
X-0010235Y0041335D03*
Y0040335D03*
Y0039335D03*
X-0009054Y0041335D03*
Y0040335D03*
Y0039335D03*
X-0006692Y0041335D03*
Y0040335D03*
Y0039335D03*
X0007480Y0041335D03*
Y0040335D03*
Y0039335D03*
X0008661Y0041335D03*
Y0040335D03*
Y0039335D03*
X0009842Y0041335D03*
Y0040335D03*
Y0039335D03*
X0011023Y0041335D03*
Y0040335D03*
Y0039335D03*
X0010629Y0052357D03*
X0009629D03*
X0008629D03*
X0007629D03*
X0006629D03*
X0005629D03*
X0009832Y0049818D03*
X0008832D03*
X0007832D03*
X0006832D03*
%LPD*%
M02*
