*
G04 Mass Parameters ***
*
G04 Image ***
*
%INF:\ENGENHARIA\PROJETOS\ELETRONICA\DRONE\V5\CONTROLADOR-1.PWR*%
%ICAS*%
%MOIN*%
%IPPOS*%
%ASAXBY*%
G74*%FSLAN2X34Y34*%
*
G04 Aperture Definitions ***
*
%ADD10R,0.0600X0.0600*%
%ADD11C,0.0580*%
%ADD12R,0.0580X0.0580*%
%ADD13C,0.0620*%
%ADD14R,0.0620X0.0620*%
%ADD15C,0.0450*%
%ADD16C,0.0780*%
%ADD17R,0.0780X0.0780*%
%ADD18R,0.0640X0.0320*%
%ADD19R,0.0320X0.0640*%
%ADD20C,0.0500*%
%ADD21C,0.0197*%
%ADD22C,0.0500*%
%ADD23C,0.0118*%
%ADD24C,0.0140*%
%ADD25C,0.0140*%
%ADD26R,0.0600X0.0600*%
%ADD27C,0.0580*%
%ADD28R,0.0580X0.0580*%
%ADD29C,0.0620*%
%ADD30R,0.0620X0.0620*%
%ADD31C,0.0450*%
%ADD32C,0.0780*%
%ADD33R,0.1420X0.0880*%
%ADD34R,0.0480X0.0880*%
%ADD35R,0.0780X0.0780*%
%ADD36C,0.0820*%
%ADD37R,0.0820X0.0820*%
%ADD38C,0.0650*%
%ADD39C,0.0840*%
%ADD40C,0.0020*%
%ADD41C,0.0750*%
*
G04 Plot Data ***
*
G54D40*
G01X-0011416Y0058263D02*
Y0034643D01*
X0012204D01*
Y0058263D01*
X-0011416D01*
G54D32*
X-0010629Y0051358D03*
Y0050358D03*
Y0049358D03*
Y0048358D03*
Y0047358D03*
Y0046358D03*
Y0045358D03*
Y0044358D03*
Y0043358D03*
X-0005511Y0043303D03*
Y0044303D03*
Y0045303D03*
Y0046303D03*
Y0047303D03*
Y0048303D03*
Y0049303D03*
Y0050303D03*
Y0051303D03*
Y0052358D03*
X0003670Y0045272D03*
X0002670D03*
X0001670D03*
X0000670D03*
X-0000330D03*
X-0001330D03*
X-0002330D03*
X-0003330D03*
X0006873Y0052720D03*
X0007873D03*
X0008873D03*
X0009873D03*
X0008661Y0040760D03*
Y0041760D03*
Y0042760D03*
G54D35*
X-0010629Y0052358D03*
X0005873Y0052720D03*
X0008661Y0039760D03*
G54D36*
X0006118Y0037398D03*
Y0038398D03*
X-0009054Y0039548D03*
Y0038548D03*
X-0006692Y0039548D03*
Y0038548D03*
X-0007873Y0039548D03*
Y0038548D03*
X-0010235Y0039548D03*
Y0038548D03*
X-0003921Y0036808D03*
Y0035808D03*
X-0002740Y0036808D03*
Y0035808D03*
X-0001559Y0036808D03*
Y0035808D03*
X-0000378Y0036808D03*
Y0035808D03*
X0008661Y0048996D03*
Y0047996D03*
Y0046996D03*
Y0045996D03*
Y0044996D03*
G54D37*
X0006118Y0036398D03*
X-0009054Y0040548D03*
X-0006692D03*
X-0007873D03*
X-0010235D03*
X-0003921Y0037808D03*
X-0002740D03*
X-0001559D03*
X-0000378D03*
X0008661Y0049996D03*
G54D38*
X-0007086Y0036611D03*
X-0010086D03*
G54D39*
X-0008244Y0056487D03*
X-0008221Y0054514D03*
X-0010661Y0054505D03*
X-0010668Y0056477D03*
G54D41*
X-0005511Y0054326D03*
X0005130Y0055401D03*
X-0003107Y0046217D03*
X0009851Y0046999D03*
X-0001559Y0038954D03*
X-0004681Y0049442D03*
X0006945Y0045981D03*
X0005035Y0044093D03*
X0006136Y0047987D03*
X0005035Y0048891D03*
X0006883Y0051723D03*
X0004091Y0038048D03*
X0007681Y0044996D03*
X0005059Y0043098D03*
X0006175Y0047003D03*
X-0004602Y0050303D03*
X-0004681Y0048616D03*
X-0002740Y0038887D03*
X-0004614Y0051303D03*
X0009873Y0047987D03*
X-0000378Y0038877D03*
X0010030Y0041772D03*
X0005873Y0051789D03*
X0002006Y0046256D03*
X-0003921Y0038967D03*
X0010030Y0040760D03*
G54D24*
%LPC*%
X-0005511Y0054326D03*
X-0003107Y0046217D03*
X0005130Y0055401D03*
X-0003107Y0046217D03*
X0004091Y0038048D03*
X0009851Y0046999D03*
X-0001559Y0038954D03*
X-0004681Y0049442D03*
X0006945Y0045981D03*
X0005035Y0044093D03*
X0006136Y0047987D03*
X0005035Y0048891D03*
X0006883Y0051723D03*
X0004091Y0038048D03*
X0007681Y0044996D03*
X0005059Y0043098D03*
X0006175Y0047003D03*
X-0004602Y0050303D03*
X-0004681Y0048616D03*
X-0002740Y0038887D03*
X-0004614Y0051303D03*
X0009873Y0047987D03*
X-0000378Y0038877D03*
X0010030Y0041772D03*
X0005873Y0051789D03*
X0002006Y0046256D03*
X-0003921Y0038967D03*
X0010030Y0040760D03*
%LPD*%
G54D25*
%LPC*%
X-0010629Y0052358D03*
Y0051358D03*
Y0050358D03*
Y0049358D03*
Y0048358D03*
Y0047358D03*
Y0046358D03*
Y0045358D03*
Y0044358D03*
Y0043358D03*
X-0005511Y0043303D03*
Y0044303D03*
Y0045303D03*
Y0046303D03*
Y0047303D03*
Y0048303D03*
Y0049303D03*
Y0050303D03*
Y0051303D03*
Y0052358D03*
X0003670Y0045272D03*
X0002670D03*
X0001670D03*
X0000670D03*
X-0000330D03*
X-0001330D03*
X-0002330D03*
X-0003330D03*
X-0008244Y0056487D03*
X-0008221Y0054514D03*
X-0010661Y0054505D03*
X-0010668Y0056477D03*
X-0007086Y0036611D03*
X-0010086D03*
X0006118Y0036398D03*
Y0037398D03*
Y0038398D03*
X0005873Y0052720D03*
X0006873D03*
X0007873D03*
X0008873D03*
X0009873D03*
X-0009054Y0040548D03*
Y0039548D03*
Y0038548D03*
X-0006692Y0040548D03*
Y0039548D03*
Y0038548D03*
X-0007873Y0040548D03*
Y0039548D03*
Y0038548D03*
X-0010235Y0040548D03*
Y0039548D03*
Y0038548D03*
X-0003921Y0037808D03*
Y0036808D03*
Y0035808D03*
X-0002740Y0037808D03*
Y0036808D03*
Y0035808D03*
X-0001559Y0037808D03*
Y0036808D03*
Y0035808D03*
X-0000378Y0037808D03*
Y0036808D03*
Y0035808D03*
X0008661Y0049996D03*
Y0048996D03*
Y0047996D03*
Y0046996D03*
Y0045996D03*
Y0044996D03*
Y0039760D03*
Y0040760D03*
Y0041760D03*
Y0042760D03*
%LPD*%
M02*
