*
G04 Mass Parameters ***
*
G04 Image ***
*
%INF:\ENGENHARIA\PROJETOS\ELETRONICA\DRONE\V5\CONTROLADOR-4.GND*%
%ICAS*%
%MOIN*%
%IPPOS*%
%ASAXBY*%
G74*%FSLAN2X34Y34*%
*
G04 Aperture Definitions ***
*
%ADD10R,0.0600X0.0600*%
%ADD11C,0.0580*%
%ADD12R,0.0580X0.0580*%
%ADD13C,0.0620*%
%ADD14R,0.0620X0.0620*%
%ADD15C,0.0780*%
%ADD16R,0.0780X0.0780*%
%ADD17R,0.0640X0.0320*%
%ADD18R,0.0320X0.0640*%
%ADD19C,0.0010*%
%ADD20C,0.0500*%
%ADD21C,0.0197*%
%ADD22C,0.0118*%
%ADD23C,0.0500*%
%ADD24C,0.0157*%
%ADD25C,0.0130*%
%ADD26C,0.0140*%
%ADD27C,0.0140*%
%ADD28R,0.0600X0.0600*%
%ADD29C,0.0580*%
%ADD30R,0.0580X0.0580*%
%ADD31C,0.0620*%
%ADD32R,0.0620X0.0620*%
%ADD33C,0.0780*%
%ADD34R,0.1420X0.0880*%
%ADD35R,0.0480X0.0880*%
%ADD36C,0.0080*%
%ADD37C,0.0138*%
%ADD38R,0.0780X0.0780*%
%ADD39C,0.0820*%
%ADD40R,0.0820X0.0820*%
%ADD41C,0.0840*%
%ADD42C,0.0750*%
*
G04 Plot Data ***
*
G54D33*
X0013751Y0051319D03*
Y0050319D03*
Y0049319D03*
Y0048319D03*
Y0047319D03*
Y0046319D03*
Y0045319D03*
Y0044319D03*
Y0043319D03*
X0008751D03*
Y0044319D03*
Y0045319D03*
Y0046319D03*
Y0047319D03*
Y0048319D03*
Y0049319D03*
Y0050319D03*
Y0051319D03*
Y0052319D03*
X-0000473Y0044090D03*
X0000527D03*
X0001527D03*
X0002527D03*
X0003527D03*
X0004527D03*
X0005527D03*
X0006527D03*
X-0004281Y0056863D03*
X-0005188Y0049818D03*
X-0004188D03*
X-0003188D03*
G54D38*
X0013751Y0052319D03*
X-0003281Y0056863D03*
X-0006188Y0049818D03*
G54D39*
X-0002867Y0055113D03*
X-0003867D03*
X-0004867D03*
X-0005867D03*
X-0006867D03*
X0011518Y0040335D03*
Y0039335D03*
X0013880Y0040335D03*
Y0039335D03*
X0012699Y0040335D03*
Y0039335D03*
X0010337Y0040335D03*
Y0039335D03*
X-0003835Y0040335D03*
Y0039335D03*
X-0005016Y0040335D03*
Y0039335D03*
X-0006197Y0040335D03*
Y0039335D03*
X-0007378Y0040335D03*
Y0039335D03*
X-0005984Y0052357D03*
X-0004984D03*
X-0003984D03*
X-0002984D03*
X-0001984D03*
G54D40*
X-0001867Y0055113D03*
X0011518Y0041335D03*
X0013880D03*
X0012699D03*
X0010337D03*
X-0003835D03*
X-0005016D03*
X-0006197D03*
X-0007378D03*
X-0006984Y0052357D03*
G54D41*
X-0004419Y0045480D03*
X-0002447Y0045456D03*
X-0002437Y0047897D03*
X-0004410Y0047904D03*
X0013557Y0056657D03*
X0011584Y0056680D03*
X0011575Y0054240D03*
X0013547Y0054233D03*
G54D42*
X0009236Y0054436D03*
X-0006975Y0048203D03*
X-0006868Y0056464D03*
X-0005982Y0053336D03*
X0006201Y0045548D03*
X-0001494Y0056720D03*
X-0002183Y0041403D03*
X0008901D03*
X0014453Y0051325D03*
X0001538Y0045631D03*
X-0003718Y0051384D03*
X0014493Y0050321D03*
X-0003868Y0053755D03*
X-0005057Y0050912D03*
X-0005197Y0048751D03*
X-0002933Y0042244D03*
X-0001193Y0051566D03*
X0014473Y0048313D03*
X-0005009Y0042480D03*
X-0002261Y0051384D03*
X0014473Y0049317D03*
X-0004969Y0053342D03*
X0000121Y0045635D03*
X-0002864Y0053847D03*
X-0007378Y0042505D03*
X-0006199Y0042466D03*
G54D26*
%LPC*%
X0009236Y0054436D03*
X-0006975Y0048203D03*
X-0006868Y0056464D03*
D03*
X-0005982Y0053336D03*
X0006201Y0045548D03*
X-0001494Y0056720D03*
X-0002183Y0041403D03*
X0008901D03*
X0014453Y0051325D03*
X0001538Y0045631D03*
X-0003718Y0051384D03*
X0000121Y0045635D03*
X0014493Y0050321D03*
X-0003868Y0053755D03*
X-0005057Y0050912D03*
X-0005197Y0048751D03*
X-0002933Y0042244D03*
X-0001193Y0051566D03*
X0014473Y0048313D03*
X-0005009Y0042480D03*
X-0002261Y0051384D03*
X0014473Y0049317D03*
X-0004969Y0053342D03*
X0000121Y0045635D03*
X-0002864Y0053847D03*
X-0007378Y0042505D03*
X-0006199Y0042466D03*
%LPD*%
G54D27*
%LPC*%
X0013751Y0052319D03*
Y0051319D03*
Y0050319D03*
Y0049319D03*
Y0048319D03*
Y0047319D03*
Y0046319D03*
Y0045319D03*
Y0044319D03*
Y0043319D03*
X0008751D03*
Y0044319D03*
Y0045319D03*
Y0046319D03*
Y0047319D03*
Y0048319D03*
Y0049319D03*
Y0050319D03*
Y0051319D03*
Y0052319D03*
X-0000473Y0044090D03*
X0000527D03*
X0001527D03*
X0002527D03*
X0003527D03*
X0004527D03*
X0005527D03*
X0006527D03*
X-0004419Y0045480D03*
X-0002447Y0045456D03*
X-0002437Y0047897D03*
X-0004410Y0047904D03*
X0013557Y0056657D03*
X0011584Y0056680D03*
X0011575Y0054240D03*
X0013547Y0054233D03*
X-0003281Y0056863D03*
X-0004281D03*
X-0001867Y0055113D03*
X-0002867D03*
X-0003867D03*
X-0004867D03*
X-0005867D03*
X-0006867D03*
X0011518Y0041335D03*
Y0040335D03*
Y0039335D03*
X0013880Y0041335D03*
Y0040335D03*
Y0039335D03*
X0012699Y0041335D03*
Y0040335D03*
Y0039335D03*
X0010337Y0041335D03*
Y0040335D03*
Y0039335D03*
X-0003835Y0041335D03*
Y0040335D03*
Y0039335D03*
X-0005016Y0041335D03*
Y0040335D03*
Y0039335D03*
X-0006197Y0041335D03*
Y0040335D03*
Y0039335D03*
X-0007378Y0041335D03*
Y0040335D03*
Y0039335D03*
X-0006984Y0052357D03*
X-0005984D03*
X-0004984D03*
X-0003984D03*
X-0002984D03*
X-0001984D03*
X-0006188Y0049818D03*
X-0005188D03*
X-0004188D03*
X-0003188D03*
%LPD*%
M02*
