*
G04 Mass Parameters ***
*
G04 Image ***
*
%INF:\ENGENHARIA\PROJETOS\ELETRONICA\DRONE\V5\CONTROLADOR-1.GND*%
%ICAS*%
%MOIN*%
%IPPOS*%
%ASAXBY*%
G74*%FSLAN2X34Y34*%
*
G04 Aperture Definitions ***
*
%ADD10R,0.0600X0.0600*%
%ADD11C,0.0580*%
%ADD12R,0.0580X0.0580*%
%ADD13C,0.0620*%
%ADD14R,0.0620X0.0620*%
%ADD15C,0.0450*%
%ADD16C,0.0780*%
%ADD17R,0.0780X0.0780*%
%ADD18R,0.0640X0.0320*%
%ADD19R,0.0320X0.0640*%
%ADD20C,0.0500*%
%ADD21C,0.0197*%
%ADD22C,0.0500*%
%ADD23C,0.0118*%
%ADD24C,0.0140*%
%ADD25C,0.0140*%
%ADD26R,0.0600X0.0600*%
%ADD27C,0.0580*%
%ADD28R,0.0580X0.0580*%
%ADD29C,0.0620*%
%ADD30R,0.0620X0.0620*%
%ADD31C,0.0450*%
%ADD32C,0.0780*%
%ADD33R,0.1420X0.0880*%
%ADD34R,0.0480X0.0880*%
%ADD35R,0.0780X0.0780*%
%ADD36C,0.0820*%
%ADD37R,0.0820X0.0820*%
%ADD38C,0.0650*%
%ADD39C,0.0840*%
%ADD40C,0.0020*%
%ADD41C,0.0750*%
*
G04 Plot Data ***
*
G54D40*
G01X0013568Y0058263D02*
Y0034643D01*
X-0010052D01*
Y0058263D01*
X0013568D01*
G54D32*
X0012781Y0051358D03*
Y0050358D03*
Y0049358D03*
Y0048358D03*
Y0047358D03*
Y0046358D03*
Y0045358D03*
Y0044358D03*
Y0043358D03*
X0007663Y0043303D03*
Y0044303D03*
Y0045303D03*
Y0046303D03*
Y0047303D03*
Y0048303D03*
Y0049303D03*
Y0050303D03*
Y0051303D03*
Y0052358D03*
X-0001518Y0045272D03*
X-0000518D03*
X0000482D03*
X0001482D03*
X0002482D03*
X0003482D03*
X0004482D03*
X0005482D03*
X-0004722Y0052720D03*
X-0005722D03*
X-0006722D03*
X-0007722D03*
X-0006509Y0040760D03*
Y0041760D03*
Y0042760D03*
G54D35*
X0012781Y0052358D03*
X-0003722Y0052720D03*
X-0006509Y0039760D03*
G54D36*
X-0003966Y0037398D03*
Y0038398D03*
X0011206Y0039548D03*
Y0038548D03*
X0008844Y0039548D03*
Y0038548D03*
X0010025Y0039548D03*
Y0038548D03*
X0012387Y0039548D03*
Y0038548D03*
X0006073Y0036808D03*
Y0035808D03*
X0004892Y0036808D03*
Y0035808D03*
X0003711Y0036808D03*
Y0035808D03*
X0002530Y0036808D03*
Y0035808D03*
X-0006509Y0048996D03*
Y0047996D03*
Y0046996D03*
Y0045996D03*
Y0044996D03*
G54D37*
X-0003966Y0036398D03*
X0011206Y0040548D03*
X0008844D03*
X0010025D03*
X0012387D03*
X0006073Y0037808D03*
X0004892D03*
X0003711D03*
X0002530D03*
X-0006509Y0049996D03*
G54D38*
X0009238Y0036611D03*
X0012238D03*
G54D39*
X0010396Y0056487D03*
X0010372Y0054514D03*
X0012812Y0054505D03*
X0012819Y0056477D03*
G54D41*
X0007663Y0054326D03*
X-0002979Y0055401D03*
X0005259Y0046217D03*
X-0007700Y0046999D03*
X0003711Y0038954D03*
X0006832Y0049442D03*
X-0004794Y0045981D03*
X-0002883Y0044093D03*
X-0003984Y0047987D03*
X-0002883Y0048891D03*
X-0004732Y0051723D03*
X-0001939Y0038048D03*
X-0005529Y0044996D03*
X-0002907Y0043098D03*
X-0004024Y0047003D03*
X0006754Y0050303D03*
X0006832Y0048616D03*
X0004892Y0038887D03*
X0006766Y0051303D03*
X-0007721Y0047987D03*
X0002530Y0038877D03*
X-0007878Y0041772D03*
X-0003722Y0051789D03*
X0000146Y0046256D03*
X0006073Y0038967D03*
X-0007878Y0040760D03*
G54D24*
%LPC*%
X0007663Y0054326D03*
X0005259Y0046217D03*
X-0002979Y0055401D03*
X0005259Y0046217D03*
X-0001939Y0038048D03*
X-0007700Y0046999D03*
X0003711Y0038954D03*
X0006832Y0049442D03*
X-0004794Y0045981D03*
X-0002883Y0044093D03*
X-0003984Y0047987D03*
X-0002883Y0048891D03*
X-0004732Y0051723D03*
X-0001939Y0038048D03*
X-0005529Y0044996D03*
X-0002907Y0043098D03*
X-0004024Y0047003D03*
X0006754Y0050303D03*
X0006832Y0048616D03*
X0004892Y0038887D03*
X0006766Y0051303D03*
X-0007721Y0047987D03*
X0002530Y0038877D03*
X-0007878Y0041772D03*
X-0003722Y0051789D03*
X0000146Y0046256D03*
X0006073Y0038967D03*
X-0007878Y0040760D03*
%LPD*%
G54D25*
%LPC*%
X0012781Y0052358D03*
Y0051358D03*
Y0050358D03*
Y0049358D03*
Y0048358D03*
Y0047358D03*
Y0046358D03*
Y0045358D03*
Y0044358D03*
Y0043358D03*
X0007663Y0043303D03*
Y0044303D03*
Y0045303D03*
Y0046303D03*
Y0047303D03*
Y0048303D03*
Y0049303D03*
Y0050303D03*
Y0051303D03*
Y0052358D03*
X-0001518Y0045272D03*
X-0000518D03*
X0000482D03*
X0001482D03*
X0002482D03*
X0003482D03*
X0004482D03*
X0005482D03*
X0010396Y0056487D03*
X0010372Y0054514D03*
X0012812Y0054505D03*
X0012819Y0056477D03*
X0009238Y0036611D03*
X0012238D03*
X-0003966Y0036398D03*
Y0037398D03*
Y0038398D03*
X-0003722Y0052720D03*
X-0004722D03*
X-0005722D03*
X-0006722D03*
X-0007722D03*
X0011206Y0040548D03*
Y0039548D03*
Y0038548D03*
X0008844Y0040548D03*
Y0039548D03*
Y0038548D03*
X0010025Y0040548D03*
Y0039548D03*
Y0038548D03*
X0012387Y0040548D03*
Y0039548D03*
Y0038548D03*
X0006073Y0037808D03*
Y0036808D03*
Y0035808D03*
X0004892Y0037808D03*
Y0036808D03*
Y0035808D03*
X0003711Y0037808D03*
Y0036808D03*
Y0035808D03*
X0002530Y0037808D03*
Y0036808D03*
Y0035808D03*
X-0006509Y0049996D03*
Y0048996D03*
Y0047996D03*
Y0046996D03*
Y0045996D03*
Y0044996D03*
Y0039760D03*
Y0040760D03*
Y0041760D03*
Y0042760D03*
%LPD*%
M02*
