%
T1C0.0280F200S100
X-010848Y050321
X-010828Y048313
X-010828Y049317
X-010808Y051325
X-007639Y054180
X-005256Y041402
X-002557Y045548
X002106Y045631
X003524Y045635
X004838Y051566
X005060Y056759
X005827Y041402
X005906Y051384
X006509Y053847
X006578Y042244
X007363Y051384
X007513Y053754
X008614Y053342
X008653Y042480
X008702Y050912
X008842Y048751
X009627Y053336
X009844Y042466
X010497Y056842
X010620Y048203
X011023Y042505
T2C0.0340F200S100
X-010106Y043319
X-010106Y044319
X-010106Y045319
X-010106Y046319
X-010106Y047319
X-010106Y048319
X-010106Y049319
X-010106Y050319
X-010106Y051319
X-010106Y052319
X-005106Y043319
X-005106Y044319
X-005106Y045319
X-005106Y046319
X-005106Y047319
X-005106Y048319
X-005106Y049319
X-005106Y050319
X-005106Y051319
X-005106Y052319
X-002882Y044090
X-001882Y044090
X-000882Y044090
X000118Y044090
X001118Y044090
X002118Y044090
X003118Y044090
X004118Y044090
T4C0.0420F200S100
X-010235Y039335
X-010235Y040335
X-010235Y041335
X-009054Y039335
X-009054Y040335
X-009054Y041335
X-007873Y039335
X-007873Y040335
X-007873Y041335
X-006692Y039335
X-006692Y040335
X-006692Y041335
X005511Y055113
X005629Y052357
X006511Y055113
X006629Y052357
X007480Y039335
X007480Y040335
X007480Y041335
X007511Y055113
X007629Y052357
X008511Y055113
X008629Y052357
X008661Y039335
X008661Y040335
X008661Y041335
X009511Y055113
X009629Y052357
X009842Y039335
X009842Y040335
X009842Y041335
X010511Y055113
X010629Y052357
X011023Y039335
X011023Y040335
X011023Y041335
T3C0.0370F200S100
X006806Y056745
X006832Y049818
X007806Y056745
X007832Y049818
X008832Y049818
X009832Y049818
T5C0.0580F200S100
X-010637Y056594
X-010628Y054170
X-008665Y056618
X-008656Y054178
X006082Y047896
X006091Y045456
X008054Y047904
X008064Y045480
M30
